Coordinates
version=1
nRows=54
nColumns=12
inDegrees=yes

Units are S.I. units (second, meters, Newtons, ...)
Angles are in degrees

endheader
time	SC_y	SC_z	SC_x	AC_y	AC_z	AC_x	GH_y	GH_z	GH_yy	EL_x	PS_y
       0.0              -23.59          23.36          74.97          38.32         -8.182         -5.079         -32.37         -2.771         -67.23          125.0          137.2
   0.04135              -23.59          23.36          74.97          38.32         -8.182         -5.076         -32.38         -2.759         -67.21          125.0          137.2
    0.0827               -23.6          23.36          74.97          38.33         -8.183         -5.072         -32.39         -2.746         -67.18          125.0          137.2
    0.1241               -23.6          23.36          74.97          38.33         -8.183         -5.069          -32.4         -2.732         -67.15          125.0          137.1
    0.1654               -23.6          23.36          74.98          38.34         -8.183         -5.065         -32.41         -2.717         -67.12          125.0          137.1
    0.2068               -23.6          23.37          74.98          38.35         -8.184          -5.06         -32.43         -2.702         -67.08          125.0          137.1
    0.2481               -23.6          23.37          74.98          38.35         -8.184         -5.056         -32.44         -2.685         -67.04          125.0          137.1
    0.2895               -23.6          23.37          74.98          38.36         -8.185         -5.051         -32.45         -2.667          -67.0          125.0          137.1
    0.3308               -23.6          23.37          74.98          38.36         -8.185         -5.046         -32.46         -2.648         -66.96          124.9          137.0
    0.3722               -23.6          23.37          74.98          38.37         -8.186         -5.041         -32.48         -2.628         -66.92          124.9          137.0
    0.4135              -23.61          23.38          74.98          38.38         -8.186         -5.035          -32.5         -2.606         -66.87          124.9          137.0
    0.4549              -23.61          23.38          74.99          38.39         -8.187         -5.028         -32.51         -2.582         -66.81          124.9          137.0
    0.4962              -23.61          23.38          74.99           38.4         -8.188         -5.021         -32.53         -2.556         -66.76          124.9          136.9
    0.5376              -23.61          23.38          74.99          38.41         -8.189         -5.014         -32.55         -2.529          -66.7          124.9          136.9
    0.5789              -23.61          23.39          74.99          38.42         -8.189         -5.006         -32.57         -2.499         -66.63          124.9          136.9
    0.6203              -23.62          23.39           75.0          38.43          -8.19         -4.997          -32.6         -2.467         -66.56          124.9          136.8
    0.6616              -23.62          23.39           75.0          38.44         -8.191         -4.988         -32.62         -2.431         -66.48          124.9          136.8
     0.703              -23.62           23.4           75.0          38.45         -8.192         -4.977         -32.65         -2.393         -66.39          124.9          136.7
    0.7443              -23.62           23.4           75.0          38.47         -8.193         -4.966         -32.68         -2.351          -66.3          124.9          136.7
    0.7857              -23.63          23.41          75.01          38.49         -8.195         -4.954         -32.71         -2.305          -66.2          124.9          136.6
     0.827              -23.63          23.41          75.01           38.5         -8.196          -4.94         -32.75         -2.255         -66.09          124.9          136.6
    0.8684              -23.64          23.42          75.02          38.52         -8.197         -4.925         -32.79           -2.2         -65.96          124.9          136.5
    0.9097              -23.64          23.42          75.02          38.54         -8.199         -4.909         -32.83         -2.138         -65.83          124.9          136.5
    0.9511              -23.65          23.43          75.03          38.57         -8.201         -4.891         -32.88         -2.071         -65.68          124.9          136.4
    0.9924              -23.65          23.44          75.03           38.6         -8.203          -4.87         -32.94         -1.995         -65.51          124.9          136.3
     1.034              -23.66          23.45          75.04          38.63         -8.205         -4.848          -33.0         -1.911         -65.32          124.8          136.2
     1.075              -23.66          23.46          75.05          38.66         -8.208         -4.822         -33.07         -1.817         -65.11          124.8          136.1
     1.116              -23.67          23.47          75.05           38.7         -8.211         -4.794         -33.15         -1.711         -64.88          124.8          136.0
     1.158              -23.68          23.48          75.06          38.74         -8.214         -4.762         -33.23         -1.591         -64.61          124.8          135.8
     1.199              -23.69          23.49          75.07          38.79         -8.218         -4.725         -33.33         -1.455         -64.31          124.8          135.7
     1.241               -23.7          23.51          75.09          38.84         -8.222         -4.683         -33.44           -1.3         -63.97          124.8          135.5
     1.282              -23.72          23.53           75.1          38.91         -8.227         -4.635         -33.57         -1.122         -63.57          124.7          135.3
     1.323              -23.73          23.55          75.12          38.98         -8.232          -4.58         -33.72        -0.9162         -63.11          124.7          135.0
     1.365              -23.75          23.57          75.13          39.06         -8.239         -4.516          -33.9        -0.6773         -62.58          124.7          134.8
     1.406              -23.77           23.6          75.16          39.16         -8.247         -4.441          -34.1        -0.3977         -61.96          124.6          134.4
     1.447              -23.79          23.64          75.18          39.28         -8.256         -4.352         -34.34       -0.06811         -61.23          124.6          134.1
     1.489              -23.82          23.68          75.21          39.42         -8.266         -4.247         -34.63         0.3236         -60.36          124.5          133.6
      1.53              -23.86          23.73          75.25          39.58         -8.279          -4.12         -34.97          0.793         -59.32          124.5          133.1
     1.571               -23.9          23.79          75.29          39.79         -8.294         -3.968         -35.38          1.361         -58.05          124.4          132.4
     1.613              -23.95          23.86          75.35          40.03         -8.313         -3.781         -35.88          2.055         -56.51          124.3          131.6
     1.654              -24.02          23.95          75.41          40.33         -8.337         -3.551         -36.51          2.911         -54.61          124.2          130.6
     1.695              -24.09          24.06           75.5          40.71         -8.366         -3.264         -37.28          3.979         -52.24          124.0          129.4
     1.737              -24.19          24.19           75.6          41.19         -8.402         -2.902         -38.26          5.324         -49.25          123.8          127.8
     1.778              -24.32          24.37          75.74           41.8         -8.449         -2.442         -39.51          7.034         -45.45          123.6          125.9
     1.819              -24.48           24.6          75.91          42.57         -8.508         -1.853          -41.1          9.223         -40.59          123.2          123.4
     1.861              -24.69          24.89          76.12          43.57         -8.585         -1.098         -43.14          12.03         -34.35          122.8          120.1
     1.902              -24.96          25.26           76.4          44.84         -8.683        -0.1326         -45.75          15.62         -26.37          122.3          116.0
     1.944              -25.29          25.72          76.76          46.44         -8.805          1.081         -49.03          20.13         -16.35          121.7          110.8
     1.985               -25.7          26.29          77.18          48.39         -8.955           2.56         -53.03          25.63         -4.136          120.9          104.4
     2.026              -26.17          26.95          77.68          50.64         -9.128          4.273         -57.67           32.0          10.02          120.0           97.1
     2.068              -26.69          27.66          78.22          53.09         -9.316          6.129         -62.69           38.9          25.35          119.0          89.14
     2.109               -27.2          28.37          78.75          55.54         -9.504          7.985          -67.7           45.8          40.68          118.0          81.19
      2.15              -27.67          29.03          79.25          57.79         -9.678          9.699         -72.34          52.17          54.84          117.1          73.84
     2.192              -28.08          29.59          79.68          59.74         -9.827          11.18         -76.34          57.67          67.06          116.3          67.51
